<svg width="320" height="320" xmlns="http://www.w3.org/2000/svg" style="fill:rgb(179, 188, 189);">
 <!--! Font Awesome Pro 6.1.1 by @fontawesome - https://fontawesome.com License - https://fontawesome.com/license (Commercial License) Copyright 2022 Fonticons, Inc. -->

 <g>
  <title>Layer 1</title>
  <path id="svg_1" d="m310.6,266.4c12.5,12.5 12.5,32.75 0,45.25c-6.2,6.25 -14.4,9.35 -22.6,9.35s-16.38,-3.125 -22.62,-9.375l-105.38,-105.325l-105.37,105.3c-6.25,6.3 -14.44,9.4 -22.63,9.4s-16.37,-3.1 -22.625,-9.4c-12.5,-12.5 -12.5,-32.75 0,-45.25l105.4,-105.4l-105.4,-105.35c-12.5,-12.5 -12.5,-32.75 0,-45.25s32.75,-12.5 45.25,0l105.375,105.45l105.4,-105.4c12.5,-12.5 32.75,-12.5 45.25,0s12.5,32.75 0,45.25l-105.4,105.4l105.35,105.35z"/>
 </g>
</svg>